<?xml version="1.0" encoding="utf-8"?>
<!-- Generator: Adobe Illustrator 22.1.0, SVG Export Plug-In . SVG Version: 6.00 Build 0)  -->
<svg version="1.1" id="Layer_1" xmlns="http://www.w3.org/2000/svg" xmlns:xlink="http://www.w3.org/1999/xlink" x="0px" y="0px"
	 viewBox="0 0 400 123.7" style="enable-background:new 0 0 400 123.7;" xml:space="preserve">
<style type="text/css">
	.st0{fill:#527B94;}
	.st1{fill:#C15977;}
</style>
<g>
	<path class="st0" d="M40.5,32.5c-0.1-0.2,0.1-0.6,0.5-1.3c0.4-0.7,0.8-1.6,1.3-2.6c0.5-1,0.9-2.2,1.4-3.5c0.5-1.3,0.8-2.7,1-4
		c0.2-1.4,0.2-2.8,0-4.2c-0.2-1.4-0.8-2.7-1.7-4c-0.6-0.7-1.4-1-2.5-1.1c-1.1-0.1-2.3,0.1-3.7,0.5c-1.4,0.4-2.8,1.1-4.3,1.9
		c-1.5,0.9-2.8,1.9-4,3c-1.2,1.1-2.3,2.4-3.1,3.8c-0.9,1.4-1.3,2.8-1.5,4.3c-0.1,1.2-0.1,2.2,0.1,3.3c0.2,1,0.5,1.9,0.8,2.7
		c0.3,0.8,0.7,1.6,1.1,2.3c0.4,0.7,0.7,1.4,1.1,1.9c0.4,0.8,1.1,1.6,2.1,2.6c0.9,0.9,2,2,3.1,3.2c1.1,1.2,2.2,2.5,3.3,4
		c1.1,1.5,2.1,3.2,2.9,5.1c0.8,1.9,1.4,4,1.8,6.3c0.3,2.3,0.3,4.9-0.1,7.8c-0.6,4.1-1.6,7.5-2.9,10.3c-1.3,2.7-2.8,5-4.4,6.6
		c-1.6,1.7-3.2,2.9-4.8,3.6c-1.6,0.8-2.9,1.2-4,1.5c-0.8,0.2-1.8,0.3-3,0.5c-1.1,0.1-2.3,0.1-3.6-0.1c-1.3-0.2-2.5-0.6-3.8-1.2
		c-1.3-0.6-2.4-1.5-3.4-2.7c-1.2-1.4-2.1-2.9-2.7-4.5c-0.6-1.4-1.1-3-1.4-4.8c-0.3-1.8-0.2-3.7,0.5-5.6c0.4-0.5,0.9-0.9,1.4-1.3
		c0.5-0.4,1-0.7,1.5-1c0.6-0.3,1.1-0.6,1.7-0.9c0.7-0.2,1.4-0.4,2.2-0.6c0.6-0.1,1.3-0.2,2-0.2c0.7,0,1.3,0.1,2,0.3
		c-0.8,0.9-1.4,1.8-1.8,2.7c-0.2,0.4-0.4,0.8-0.5,1.2c-0.2,1.1-0.3,2.3-0.2,3.8c0.1,1.5,0.4,2.9,0.9,4.2c0.5,1.4,1.3,2.5,2.3,3.5
		c1,1,2.3,1.5,4,1.5c4.1,0.1,7.5-3.1,10.3-9.5c0.9-2,1.4-4,1.5-6.1c0-2.1-0.2-4-0.7-5.9c-0.5-1.9-1.2-3.7-2.1-5.3s-1.7-3-2.6-4.2
		c-0.9-1.2-2-2.4-3.2-3.8c-1.3-1.4-2.5-2.8-3.7-4.5c-1.2-1.6-2.3-3.4-3.3-5.3c-1-1.9-1.6-3.9-2-6.2c-0.4-3.1-0.2-6,0.9-8.5
		c1-2.6,2.4-4.8,4.2-6.8c1.7-1.9,3.7-3.5,5.7-4.8c2.1-1.2,3.9-2,5.5-2.3c8.9-1.8,14.8-0.3,17.6,4.5c1.2,1.8,1.8,3.8,1.9,5.8
		c0.1,2.1,0,4-0.4,5.7c-0.4,1.7-0.8,3.2-1.3,4.4c-0.5,1.2-0.9,1.8-1,2c-0.3,0.3-0.9,0.7-1.6,1.1c-0.7,0.4-1.9,0.7-3.5,1.1
		c-0.4,0.1-0.9,0.2-1.3,0.2c-0.4,0-0.8,0-1.3-0.1C41.2,32.8,40.9,32.7,40.5,32.5z"/>
	<path class="st0" d="M88.2,53.5c-1.7,2.4-3.6,4.8-5.7,7.1c-2.1,2.3-4.3,4.4-6.7,6.2c-2.4,1.8-4.8,3.3-7.2,4.4
		c-2.5,1.1-4.9,1.7-7.2,1.7c-1.2,0-2.5-0.3-4-0.9c-1.4-0.6-2.7-1.5-3.9-2.7c-1.2-1.2-2.1-2.8-2.8-4.8c-0.7-1.9-0.9-4.3-0.6-7.1
		c0.2-2.3,0.9-4.7,2.1-7.2c1.2-2.5,2.7-4.8,4.4-7c1.7-2.1,3.7-3.9,5.9-5.3c2.2-1.4,4.4-2.1,6.6-2.1c2.1,0,3.6,0.5,4.6,1.6
		c0.9,1.1,1.4,2.4,1.3,3.9c-0.2,1.7-0.7,3.3-1.5,4.8c-0.8,1.4-1.8,2.7-2.9,3.9c-1.1,1.2-2.3,2.2-3.5,3.2c-1.3,0.9-2.4,1.8-3.5,2.6
		c-1.2,0.8-2.4,1.6-3.5,2.4c-1.1,0.7-2.1,1.4-2.9,2c0.1,1.4,0.3,2.6,0.7,3.5c0.4,0.9,1,1.7,1.7,2.3c0.7,0.6,1.4,1,2.3,1.3
		c0.9,0.2,1.7,0.4,2.6,0.4c1.9,0,3.9-0.6,5.9-1.8c2.1-1.2,4.1-2.6,6-4.3c2-1.7,3.8-3.5,5.5-5.3c1.7-1.8,3.1-3.4,4.2-4.7
		c0.4-0.4,0.8-0.7,1.2-0.8c0.4-0.1,0.7,0,1,0.2c0.3,0.2,0.4,0.5,0.4,1C88.8,52.3,88.6,52.9,88.2,53.5z M66.9,40.6
		c-0.7,0-1.5,0.3-2.4,1c-0.9,0.7-1.8,1.6-2.7,2.9c-0.9,1.3-1.7,2.8-2.5,4.6c-0.8,1.8-1.4,3.9-1.7,6.2c0.7-0.5,1.4-1,2.2-1.5
		c0.8-0.5,1.6-1.1,2.3-1.7c2.4-1.8,4.1-3.4,5-4.8c0.9-1.4,1.5-2.6,1.6-3.6c0.1-1.1,0-1.8-0.3-2.3C67.9,40.9,67.5,40.6,66.9,40.6z"/>
	<path class="st0" d="M124.9,54.2c-0.8,1.1-1.8,2.5-3,4.1c-1.2,1.6-2.5,3.3-3.8,4.9c-1.3,1.6-2.6,3.1-3.8,4.5
		c-1.2,1.4-2.3,2.3-3.1,2.9c-0.6,0.3-1.2,0.6-1.9,0.8c-0.7,0.2-1.5,0.4-2.2,0.4c-0.7,0.1-1.5,0-2.1-0.1c-0.7-0.1-1.3-0.4-1.8-0.7
		c-0.5-0.4-0.9-0.9-1.3-1.7c-0.3-0.6-0.5-1.4-0.8-2.4c-0.2-1-0.3-2.2-0.3-3.8c-1.3,2.2-2.8,3.9-4.4,5.1c-1.6,1.2-3.1,2.1-4.6,2.6
		c-1.7,0.6-3.3,1-5,1.1c-0.8,0-1.6-0.3-2.5-0.8c-0.9-0.5-1.6-1.4-2.2-2.5c-0.6-1.1-1-2.6-1.2-4.4c-0.2-1.8,0.1-4,0.7-6.5
		c0.8-3.4,2-6.5,3.7-9.3c1.7-2.8,3.5-5.2,5.5-7.1c2-2,4-3.5,5.9-4.5c1.9-1,3.6-1.4,4.8-1.3c1.5,0.3,2.7,0.7,3.7,1.3
		c0.8,0.6,1.3,1.4,1.5,2.5c0.3,1.1-0.2,2.5-1.4,4.3c0.8-0.2,1.4-0.3,2-0.3c0.5-0.1,0.9-0.1,1.2-0.1c0.3,0,0.6,0,0.7,0.1
		c0.1,0.1,0.1,0.3,0.1,0.7s-0.1,1-0.3,2c-0.2,0.9-0.4,2.2-0.7,3.8c-0.3,1.6-0.8,3.7-1.3,6.2c-0.1,0.5-0.2,1-0.3,1.4
		c-0.1,0.4-0.2,0.8-0.2,1.3c-0.1,0.4-0.2,0.9-0.3,1.5c-0.1,0.6-0.2,1.3-0.4,2.1c-0.1,0.5-0.1,1,0,1.6s0.1,1.1,0.3,1.6
		c0.2,0.5,0.4,0.9,0.8,1.2c0.4,0.3,0.9,0.5,1.5,0.5c0.6,0,1.3-0.3,2.2-1c0.9-0.7,1.8-1.6,2.8-2.7c1-1.1,2-2.3,3.1-3.6
		c1.1-1.3,2.1-2.6,3-3.8c0.9-1.2,1.8-2.3,2.5-3.2c0.7-0.9,1.3-1.6,1.6-2.1c0.4-0.5,0.9-0.8,1.3-0.9c0.4-0.1,0.8,0,1,0.4
		c0.2,0.3,0.3,0.8,0.1,1.5C126,52.5,125.6,53.3,124.9,54.2z M100.5,57.9c0.3-1.1,0.6-2.4,1-3.9c0.4-1.5,0.7-2.9,1-4.3
		c0.3-1.4,0.5-2.5,0.6-3.5c0.1-0.9,0.1-1.3-0.1-1.3c-0.3,0.1-0.6,0.1-0.9,0.2c-0.3,0.1-0.6,0.2-1.1,0.3c-0.4,0.1-0.9,0.1-1.3,0.2
		c0.4-0.9,0.7-1.6,0.8-2.2c0.1-0.6,0.1-1,0-1.4c-0.1-0.4-0.2-0.7-0.3-0.9c-0.6-0.5-1.7-0.1-3.2,1.2c-1.5,1.3-3.3,3.7-5.3,7.2
		c-0.8,1.4-1.5,3-2,4.6s-0.8,3.2-1,4.6c-0.2,1.4-0.2,2.7-0.1,3.8c0.1,1.1,0.3,1.8,0.7,2.1c0.6,0.6,1.3,0.9,2.1,0.9
		c0.8,0,1.6-0.2,2.4-0.7c0.8-0.4,1.6-1,2.4-1.6c0.8-0.7,1.5-1.4,2.2-2.1c0.6-0.7,1.2-1.4,1.6-2C100.2,58.6,100.5,58.2,100.5,57.9z"
		/>
	<path class="st0" d="M116.2,70.4c-0.4,0.6-0.8,1-1.3,1.2c-0.5,0.2-0.9,0.2-1.3,0.1c-0.4-0.1-0.6-0.4-0.7-0.9c-0.1-0.4,0-1,0.3-1.7
		c0.2-0.3,0.5-1.1,1.1-2.2c0.6-1.2,1.3-2.6,2.1-4.2c0.8-1.6,1.7-3.4,2.6-5.3c0.9-1.9,1.8-3.7,2.7-5.5c0.9-1.7,1.7-3.3,2.4-4.6
		c0.7-1.4,1.3-2.3,1.6-3c-0.6-0.6-1-1-1.3-1.2c-0.2-0.3-0.4-0.8-0.5-1.6c-0.1-0.7,0.1-1.7,0.5-2.8c0.4-1.2,1-2.3,1.8-3.4
		c0.7-1.1,1.5-2,2.4-2.8c0.9-0.8,1.8-1.2,2.6-1.2c1.6,0,2.7,0.5,3.3,1.5c0.6,1,1,2,1.1,3.1c0.1,0.7,0.1,1.6-0.2,2.7
		c-0.2,1.1-0.6,2.1-1.3,3c0.2,0.1,0.4,0.2,0.7,0.4c0.3,0.1,0.7,0.2,1.3,0.2c0.9,0,1.5-0.1,1.9-0.2c0.4-0.1,0.9-0.2,1.7-0.2
		c0.9,0,1.7,0.2,2.3,0.7c0.6,0.5,1.1,1.1,1.5,1.8s0.7,1.4,0.9,2.2c0.2,0.8,0.3,1.5,0.4,2.2c0.2,1.4-0.2,2.8-1.1,4.3
		c-0.9,1.5-2,3.1-3.3,4.9c-0.8,1.1-1.6,2.4-2.3,3.8c-0.8,1.4-1.1,2.6-1,3.8c0.1,0.7,0.3,1.3,0.6,1.7c0.3,0.4,1.1,0.7,2.3,0.7
		c0.9,0,2-0.3,3.1-1c1.1-0.7,2.3-1.6,3.5-2.7c1.2-1.1,2.4-2.3,3.5-3.6c1.2-1.3,2.2-2.6,3.3-3.8c1-1.3,1.8-2.4,2.5-3.4
		c0.7-1,1.2-1.7,1.5-2.2c0.3-0.4,0.6-0.7,1.1-0.9c0.4-0.2,0.8-0.2,1.2,0c0.3,0.2,0.5,0.5,0.6,1c0.1,0.5-0.1,1.2-0.6,2
		c-0.3,0.6-0.9,1.4-1.7,2.7c-0.8,1.2-1.8,2.6-2.9,4.1c-1.1,1.5-2.4,3-3.8,4.6c-1.4,1.6-2.8,3-4.4,4.3c-1.5,1.3-3.1,2.4-4.6,3.2
		c-1.5,0.8-3,1.3-4.4,1.3c-1.4,0-2.6-0.3-3.6-0.8c-0.9-0.6-1.7-1.2-2.3-2c-0.6-0.8-1-1.7-1.2-2.7c-0.3-1-0.3-1.9-0.3-2.7
		c0.1-0.7,0.2-1.4,0.5-2.1c0.3-0.8,0.7-1.5,1.1-2.3c0.4-0.8,0.9-1.6,1.3-2.4c0.5-0.8,0.9-1.6,1.3-2.4c0.9-1.6,1.7-3,2.3-4.1
		c0.6-1.1,0.9-2.1,0.9-2.9c0-0.5-0.1-0.9-0.3-1.3c-0.2-0.4-0.6-0.6-1.1-0.6c-0.3,0-0.6,0-0.7,0c-0.1,0-0.3,0-0.4,0
		c-0.1,0-0.3,0-0.6,0c-0.3,0-0.6,0-1.1,0c-0.7,0-1.3-0.1-1.8-0.3c-0.5-0.2-1-0.4-1.4-0.5c-0.2,0.4-0.7,1.2-1.5,2.5
		c-0.8,1.3-1.7,2.8-2.7,4.5c-1,1.7-2.1,3.5-3.3,5.4c-1.1,1.9-2.2,3.7-3.2,5.3c-1,1.6-1.8,3-2.5,4.2
		C116.8,69.5,116.4,70.2,116.2,70.4z"/>
	<path class="st0" d="M168.2,68c1.7,0,3.6-0.7,5.7-2c2.1-1.4,4.1-3,6.1-4.8c2-1.8,3.8-3.7,5.4-5.6c1.6-1.9,2.9-3.5,3.7-4.6
		c0.5-0.7,1-1.2,1.4-1.3c0.4-0.1,0.8-0.1,1,0.2c0.2,0.3,0.3,0.7,0.3,1.3c-0.1,0.6-0.3,1.2-0.7,2c-0.4,0.7-1,1.6-2,2.9
		c-0.9,1.3-2,2.6-3.2,4.1c-1.3,1.5-2.7,3-4.3,4.5c-1.6,1.5-3.2,2.9-5,4.2c-1.7,1.3-3.5,2.3-5.3,3.1c-1.8,0.8-3.6,1.2-5.4,1.2
		c-2.4,0-4.5-0.5-6.1-1.4c-1.6-0.9-2.9-2.1-3.9-3.5c-1-1.4-1.7-3-2-4.8c-0.4-1.7-0.6-3.5-0.6-5.2c0-1.7,0.4-3.9,1.2-6.4
		c0.8-2.6,1.9-5,3.5-7.4c1.5-2.4,3.5-4.4,5.8-6.1c2.3-1.7,5.1-2.5,8.3-2.5c1.8,0,3.3,0.6,4.5,1.8c1.3,1.2,1.8,2.9,1.8,5
		c0,1-0.2,2-0.5,3c-0.3,1-0.8,1.8-1.3,2.6c-0.6,0.7-1.2,1.3-2,1.8c-0.7,0.4-1.6,0.7-2.5,0.7c-0.7,0-1.3-0.3-1.6-0.8
		c-0.4-0.5-0.6-1.1-0.7-1.8c-0.1-0.7-0.1-1.4,0-2c0.1-0.7,0.2-1.1,0.3-1.3c0.3-0.4,0.6-0.7,0.9-0.8s0.7-0.4,1.2-0.6
		c0.3-0.2,0.6-0.4,0.8-0.7s0.3-0.7,0.3-1.1c0-0.4-0.1-0.7-0.3-1c-0.2-0.3-0.6-0.4-1.1-0.4c-0.5,0-1.4,0.4-2.7,1.2
		c-1.3,0.8-2.6,2-4,3.6c-1.4,1.6-2.6,3.6-3.6,6c-1.1,2.4-1.6,5.2-1.7,8.3c-0.1,1.8,0.2,3.3,0.7,4.5c0.6,1.2,1.3,2.1,2.1,2.7
		c0.8,0.7,1.7,1.1,2.7,1.4C166.3,67.8,167.3,68,168.2,68z"/>
	<path class="st0" d="M228,52.5c0.4-0.4,0.8-0.7,1.2-0.7c0.4,0,0.7,0.1,1,0.3c0.2,0.2,0.4,0.6,0.3,1.1c0,0.5-0.3,1.1-0.7,1.7
		c-1.1,1.4-2.3,2.9-3.7,4.5c-1.4,1.5-2.9,3-4.5,4.5s-3.2,2.8-4.8,4.1c-1.6,1.3-3.2,2.3-4.7,3.2c-1.7,0.9-3.1,1.4-4.2,1.4
		c-1.1,0-2.3-0.7-3.4-2.2c-1-1.3-1.5-2.7-1.5-4.1c0-1.5,0.3-3.3,1-5.5c0.4-1.4,0.9-3,1.6-5c0.7-1.9,1.2-3.8,1.7-5.5
		c0.4-1.8,0.5-3.3,0.4-4.5c-0.2-1.2-0.9-1.9-2.2-1.9c-0.9,0-1.8,0.3-2.9,0.9c-1,0.6-2.1,1.4-3.1,2.4c-1,1-2,2.1-3,3.3
		c-0.9,1.2-1.8,2.4-2.5,3.6c-0.4,2.2-0.9,4.3-1.3,6.4c-0.4,1.8-0.8,3.7-1.2,5.8c-0.4,2.1-0.8,3.9-1.2,5.5c-0.3,0.3-0.7,0.5-1.1,0.6
		c-0.4,0.1-0.7,0.2-1.1,0.2c-0.4,0-0.8,0-1.2-0.1c-0.4-0.1-0.9-0.3-1.3-0.5c-0.3-0.2-0.7-0.5-1-0.9c-0.3-0.4-0.6-0.8-0.8-1.5
		c2.5-10.3,4.5-18.5,5.9-24.8c1.4-6.2,2.6-11,3.3-14.3c0.9-3.9,1.5-6.6,1.8-8.1c0.2-1.1,0.3-2.1,0.4-3.1c0.1-0.9,0.2-1.8,0.2-2.7
		c0-0.9-0.1-1.8-0.2-2.6c0.4-0.3,0.9-0.5,1.5-0.7c0.5-0.2,1-0.3,1.5-0.4c0.6-0.2,1.2-0.3,1.8-0.4c0.6-0.1,1.2-0.2,1.7-0.2
		c0.4,0,0.9,0,1.3,0.1c0.4,0.1,0.6,0.3,0.8,0.5c0.3,0.3,0.5,0.8,0.5,1.7c0,0.8-0.1,1.7-0.2,2.6c-0.2,1.1-0.5,2.2-0.8,3.4
		c-1.2,4.5-2.5,8.9-3.9,13.1c-1.4,4.2-2.8,8.8-4,13.6c0.7-1.1,1.6-2.3,2.6-3.4c1-1.2,2.1-2.2,3.3-3.2c1.2-1,2.5-1.8,3.8-2.4
		c1.3-0.6,2.7-1,4.2-1c0.8,0,1.5,0.1,2.2,0.4c0.7,0.2,1.3,0.7,1.8,1.2c0.5,0.6,0.9,1.4,1.2,2.3c0.3,1,0.4,2.2,0.3,3.6
		c0,0.9-0.1,1.8-0.3,2.8c-0.2,0.9-0.5,2-0.8,3.1c-0.3,1.1-0.8,2.4-1.3,3.8c-0.5,1.4-1.2,3-1.9,4.8c-0.5,1.3-0.9,2.4-1.2,3.2
		c-0.3,0.9-0.2,1.7,0.2,2.3c0.5,0.9,1.5,1.1,3,0.6c1.5-0.5,3.7-1.9,6.6-4.3c0.7-0.6,1.4-1.2,2.3-2.1c0.8-0.8,1.6-1.7,2.4-2.5
		c0.8-0.9,1.5-1.7,2.2-2.5C227,53.5,227.6,52.9,228,52.5z"/>
	<path class="st0" d="M251.3,54.9c-0.3,1.7-0.5,3.4-0.8,4.9s-0.4,2.8-0.5,3.7c-0.1,1.4,0.2,2.4,0.7,3s1.2,0.9,1.8,0.9
		c0.8,0,1.7-0.4,2.9-1.2c1.1-0.8,2.3-1.7,3.6-2.9c1.3-1.2,2.6-2.4,3.8-3.8c1.3-1.4,2.5-2.7,3.5-4c1.1-1.3,2-2.3,2.8-3.3
		c0.8-0.9,1.3-1.6,1.5-1.8c0.3-0.3,0.7-0.5,1-0.6c0.4-0.1,0.7,0,0.9,0.2c0.2,0.2,0.3,0.5,0.3,0.9c0,0.4-0.2,1-0.7,1.7
		c-0.7,1.1-1.5,2.3-2.6,3.7c-1.1,1.4-2.2,2.9-3.5,4.4c-1.3,1.5-2.6,3-4,4.4c-1.4,1.4-2.8,2.7-4.2,3.8c-1.4,1.1-2.8,2-4.1,2.7
		c-1.3,0.7-2.5,1-3.5,1c-0.8,0-1.5-0.2-2.2-0.7c-0.7-0.4-1.3-1-1.9-1.8c-0.6-0.7-1-1.5-1.3-2.4c-0.3-0.9-0.4-1.8-0.4-2.7
		c0.1-0.4,0.1-1.1,0.3-2c-2.3,2.6-4.7,4.7-7,6.2c-2.4,1.5-4.6,2.3-6.8,2.3c-0.8,0-1.6-0.2-2.5-0.6c-0.9-0.4-1.7-1-2.4-1.9
		c-0.7-0.9-1.3-2.1-1.7-3.5c-0.4-1.4-0.6-3.2-0.5-5.3c0.2-3.2,0.8-6.3,1.9-9.2c1.1-2.9,2.5-5.4,4.2-7.5c1.7-2.1,3.6-3.8,5.7-5.1
		c2.1-1.3,4.3-1.9,6.5-1.9c0.9,0,1.8,0.2,2.6,0.7c0.8,0.5,1.4,1.1,2,1.8c0.6,0.7,1,1.6,1.4,2.5c0.4,0.9,0.6,1.7,0.8,2.5
		c0.4-1.6,0.7-3.2,1.1-4.8c0.3-1.6,0.7-3,1-4.4c0.6-2.1,1.1-4.3,1.7-6.7c0.6-2.1,1.2-4.4,1.9-7.1c0.7-2.7,1.5-5.5,2.4-8.4
		c0.6-0.4,1.1-0.8,1.6-1s1-0.4,1.4-0.5c0.5-0.2,1-0.2,1.4-0.2c0.6,0,1.1,0.1,1.5,0.2c0.4,0.1,0.8,0.5,1.1,1.1
		c0.3,0.6,0.5,1.5,0.6,2.6s0.1,2.7,0,4.8c-0.1,2.4-0.5,5.1-1.3,8c-0.7,2.9-1.7,5.9-3,9c-1.2,3.1-2.6,6.2-4.2,9.3
		C254.8,49.2,253.1,52.1,251.3,54.9z M246.4,56c0.2-1.1,0.4-2.1,0.6-3.2c0.2-1.1,0.4-2.1,0.7-3.2c-0.1,0.1-0.2,0.1-0.3,0.2
		c-0.1,0.1-0.2,0.1-0.3,0.2c-0.6,0.3-1,0.3-1.3,0c-0.2-0.3-0.3-0.8-0.3-1.5c0-0.3,0-0.9-0.1-1.8c-0.1-0.9-0.2-1.8-0.5-2.7
		c-0.2-0.9-0.6-1.7-1.1-2.4c-0.5-0.7-1.2-1-2.1-1c-1.3,0-2.6,0.7-3.9,2c-1.3,1.3-2.6,2.9-3.7,4.8c-1.2,1.9-2.1,3.8-2.9,6
		c-0.8,2.1-1.2,4-1.3,5.7c-0.1,2.7,0.2,4.6,1,5.7s1.8,1.7,3.2,1.7c1,0,2.1-0.4,3.3-1.2c1.2-0.8,2.4-1.7,3.5-2.8
		c1.1-1.1,2.2-2.2,3.2-3.4C245,57.7,245.8,56.7,246.4,56z"/>
	<path class="st0" d="M272.9,39.5c0.3-0.3,0.8-0.6,1.6-0.8c0.8-0.2,1.6-0.4,2.4-0.5c0.8-0.1,1.6-0.2,2.3-0.2c0.7,0,1.1,0,1.2,0
		c0.1,0.1-0.1,0.6-0.4,1.7c-0.3,1.1-0.8,2.4-1.3,3.9c-0.5,1.5-1,3-1.6,4.6c-0.6,1.6-1,2.9-1.3,3.9c-0.3,1-0.6,2.1-1,3.4
		c-0.4,1.3-0.7,2.5-1,3.7c-0.3,1.2-0.5,2.3-0.6,3.4c-0.1,1.1,0,1.9,0.2,2.4c0.3,0.7,0.6,1.1,0.9,1.4c0.3,0.2,0.7,0.4,1.1,0.4
		c1.1,0,2.5-0.6,4.2-1.8c1.7-1.2,3.4-2.7,5.2-4.4c1.7-1.7,3.4-3.4,4.9-5.2c1.5-1.7,2.6-3.2,3.3-4.2c0.4-0.6,0.9-0.9,1.4-1.1
		c0.5-0.2,0.9-0.1,1.2,0.1c0.3,0.2,0.5,0.6,0.5,1.1c0,0.5-0.2,1.1-0.5,1.7c-0.9,1.6-2.2,3.4-3.9,5.5c-1.7,2.1-3.6,4.2-5.5,6.2
		c-1.9,2-3.8,3.7-5.7,5c-1.9,1.4-3.4,2.1-4.5,2.2c-0.9,0.1-1.9-0.1-2.8-0.5c-0.9-0.4-1.7-0.9-2.5-1.5c-0.7-0.6-1.4-1.4-1.9-2.3
		c-0.5-0.9-0.8-1.8-0.8-2.7c-0.2-1.4-0.2-3.3,0-5.7c0.2-2.4,0.5-4.9,0.9-7.4c0.4-2.5,1-4.9,1.7-7.2C271.2,42.3,272,40.6,272.9,39.5z
		 M284.4,21.7c-0.2,0.6-0.5,1.2-1,1.8c-0.5,0.6-1,1.1-1.6,1.4c-0.6,0.4-1.2,0.6-1.8,0.7c-0.6,0.1-1.1,0-1.5-0.3
		c-1.2-0.9-1.8-1.8-1.8-2.9c-0.1-1,0.2-2,0.8-2.9c0.6-0.9,1.3-1.7,2.1-2.3c0.8-0.6,1.6-1,2.2-1.1c0.6-0.1,1.1,0,1.5,0.4
		c0.4,0.4,0.7,0.8,1,1.4c0.2,0.6,0.3,1.2,0.4,2C284.6,20.5,284.5,21.2,284.4,21.7z"/>
	<path class="st0" d="M303.6,68c1.7,0,3.6-0.7,5.7-2c2.1-1.4,4.1-3,6.1-4.8c2-1.8,3.8-3.7,5.4-5.6c1.6-1.9,2.9-3.5,3.7-4.6
		c0.5-0.7,1-1.2,1.4-1.3c0.4-0.1,0.8-0.1,1,0.2c0.2,0.3,0.3,0.7,0.2,1.3c-0.1,0.6-0.3,1.2-0.8,2c-0.4,0.7-1,1.6-2,2.9
		c-0.9,1.3-2,2.6-3.3,4.1c-1.3,1.5-2.7,3-4.2,4.5c-1.6,1.5-3.2,2.9-5,4.2c-1.7,1.3-3.5,2.3-5.3,3.1c-1.8,0.8-3.6,1.2-5.4,1.2
		c-2.4,0-4.5-0.5-6.1-1.4c-1.6-0.9-2.9-2.1-3.9-3.5c-1-1.4-1.7-3-2-4.8c-0.4-1.7-0.6-3.5-0.6-5.2c0-1.7,0.4-3.9,1.2-6.4
		c0.8-2.6,1.9-5,3.5-7.4c1.5-2.4,3.5-4.4,5.8-6.1c2.3-1.7,5.1-2.5,8.2-2.5c1.8,0,3.3,0.6,4.5,1.8c1.3,1.2,1.8,2.9,1.8,5
		c0,1-0.2,2-0.5,3s-0.8,1.8-1.3,2.6c-0.6,0.7-1.2,1.3-2,1.8c-0.8,0.4-1.6,0.7-2.5,0.7c-0.7,0-1.3-0.3-1.6-0.8
		c-0.4-0.5-0.6-1.1-0.7-1.8s-0.1-1.4,0-2s0.2-1.1,0.3-1.3c0.3-0.4,0.6-0.7,0.9-0.8c0.3-0.2,0.7-0.4,1.2-0.6c0.3-0.2,0.6-0.4,0.8-0.7
		c0.2-0.3,0.3-0.7,0.3-1.1c0-0.4-0.1-0.7-0.3-1c-0.2-0.3-0.6-0.4-1.1-0.4c-0.5,0-1.4,0.4-2.7,1.2c-1.3,0.8-2.6,2-4,3.6
		c-1.4,1.6-2.6,3.6-3.6,6c-1.1,2.4-1.6,5.2-1.7,8.3c-0.1,1.8,0.2,3.3,0.7,4.5c0.6,1.2,1.3,2.1,2.1,2.7c0.8,0.7,1.8,1.1,2.7,1.4
		C301.7,67.8,302.7,68,303.6,68z"/>
	<path class="st0" d="M363.2,54.2c-1.3,2.1-2.7,4.3-4.4,6.5c-1.6,2.3-3.4,4.3-5.2,6.2c-1.8,1.9-3.7,3.4-5.7,4.6s-3.9,1.8-5.8,1.8
		c-1.9,0-3.3-0.7-4.2-2c-0.9-1.3-1.3-2.8-1.2-4.4c0-0.7,0.1-1.4,0.2-1.9c0.1-0.6,0.3-1.1,0.5-1.5c0.2-0.4,0.3-0.9,0.5-1.4
		s0.4-1,0.5-1.6c0.2-0.7,0.2-1.4,0-2c-0.2-0.6-0.4-1.1-0.7-1.5c-0.5,0.6-1.1,1-1.7,1.5c-0.6,0.4-1.4,0.6-2.4,0.6
		c-0.7,0-1.3-0.3-1.8-1c-0.6-0.6-0.8-1.4-0.8-2.4c0-0.8,0.2-1.4,0.5-1.9c0.4-0.5,0.8-0.9,1.3-1.2c0.5-0.3,1-0.5,1.5-0.6
		c0.5-0.1,0.9-0.2,1.3-0.2c0.2,0,0.5,0,1,0.1c0.5,0.1,1.1,0.1,1.7,0.2c2-1.6,3.4-3.1,4.3-4.4c0.9-1.3,0.9-2.5,0.2-3.5
		c-0.4-0.7-1-1.1-1.7-1.1c-0.7,0-1.4,0.1-2.1,0.5c-0.7,0.4-1.4,0.8-2.1,1.4c-0.7,0.6-1.3,1.1-1.9,1.6c-1.1,1.1-2.3,2.4-3.7,4
		c-1.4,1.5-2.5,2.8-3.4,3.8c-0.4,1.7-0.8,3.4-1.2,5.3c-0.3,1.6-0.7,3.4-1.1,5.5c-0.4,2-0.8,4.1-1.3,6.3c-0.3,0.2-0.7,0.3-1,0.4
		c-0.4,0.1-0.7,0.2-1,0.2c-0.3,0.1-0.7,0.1-1,0.1c-0.4,0-0.9,0-1.3,0s-0.7-0.2-1-0.4c-0.2-0.3-0.4-0.7-0.4-1.2
		c0-0.6,0.1-1.3,0.5-2.3c0.4-1.4,1-3.4,1.7-5.8c0.7-2.4,1.4-5.1,2.1-8c0.7-2.9,1.5-5.9,2.2-9c0.7-3.1,1.5-6.1,2.1-9
		c0.7-2.9,1.2-5.4,1.7-7.7c0.5-2.3,0.8-4.1,1-5.5c0.2-1.4,0.3-2.8,0.5-4.2c0.1-1.1,0.2-2.2,0.2-3.3c0-1.1,0-1.9-0.2-2.5
		c0.3-0.3,0.7-0.5,1.2-0.7c0.5-0.2,1.1-0.4,1.7-0.5c0.6-0.2,1.3-0.3,2.2-0.4c0.9-0.1,1.7-0.1,2.4-0.1c0.6,0.1,1.1,0.3,1.4,0.8
		c0.3,0.6,0.4,1.5,0.2,2.8s-0.6,3.1-1.2,5.5c-0.8,3-1.6,5.7-2.4,8.2c-0.8,2.5-1.6,4.8-2.3,7c-0.7,2.2-1.5,4.3-2.2,6.3
		c-0.7,2-1.3,4.1-1.9,6.2c1.1-1.6,2.5-3.3,4.2-5.1c1.7-1.8,3.6-3.3,5.7-4.5c2.2-1.2,4.1-1.7,5.5-1.7c1.8,0,3.1,0.6,3.8,1.8
		c0.8,1.2,1.1,2.6,1.1,4.2c-0.1,1.3-0.4,2.5-1,3.5c-0.6,1.1-1.3,2.1-2.1,3c-0.8,0.9-1.7,1.7-2.7,2.4c-0.9,0.7-1.7,1.2-2.4,1.7
		c0.8,0.4,1.5,1,2,1.8c0.6,0.8,0.8,1.7,0.8,2.8c-0.1,1.5-0.3,2.8-0.9,4c-0.5,1.1-0.8,2.2-0.8,3.1c0.1,0.7,0.2,1.3,0.5,1.6
		c0.2,0.3,0.8,0.5,1.6,0.5c1.5,0,3.1-0.6,4.7-1.9c1.6-1.3,3.2-2.7,4.6-4.4c1.4-1.7,2.8-3.3,4-5c1.2-1.6,2.2-2.8,2.8-3.6
		c0.9-1,1.7-1.3,2.4-0.8C364,52.1,364,52.9,363.2,54.2z"/>
	<path class="st0" d="M388.8,49.7c0.2-0.3,0.5-0.5,0.9-0.6c0.4-0.1,0.7,0,0.9,0.1c0.2,0.2,0.3,0.4,0.4,0.8c0,0.4-0.1,0.9-0.5,1.6
		c-1.1,2.1-2.6,4.4-4.4,6.8c-1.8,2.4-3.7,4.7-5.7,6.9c-2,2.1-3.9,3.9-5.8,5.3c-1.9,1.4-3.5,2.1-4.7,2.1c-1.8,0-3.4-0.4-4.6-1.1
		c-1.2-0.7-2.2-1.6-2.9-2.7c-0.7-1.1-1.2-2.2-1.5-3.5c-0.3-1.3-0.4-2.4-0.2-3.5c0.1-0.9,0.2-2.5,0.6-4.8c0.3-2.3,0.8-5,1.3-8
		c0.6-3,1.2-6.3,1.9-9.8c0.7-3.5,1.4-6.8,2.2-10c-0.9,0.1-1.9,0.2-2.8,0.3c-0.9,0.1-1.8,0.2-2.6,0.2c-1.8,0-3.5-0.2-5-0.6
		c-1.6-0.4-2.8-0.8-3.5-1.2c-0.4-0.2-0.6-0.5-0.6-1c0.1-0.4,0.2-0.8,0.5-1.3c0.3-0.4,0.6-0.8,1-1.1c0.4-0.3,0.8-0.5,1.1-0.5
		c1.1,0.1,2.2,0.2,3.4,0.3c1.2,0.1,2.6,0.1,4,0c1.1-0.1,2.1-0.1,3-0.3c1-0.1,1.9-0.2,2.9-0.4c0.7-2.7,1.4-5,2.1-7
		c0.7-2,1.3-3.3,1.9-4.1c0.2-0.3,0.5-0.5,1.1-0.7c0.6-0.2,1.2-0.3,1.9-0.4c0.7-0.1,1.3-0.1,1.9,0c0.6,0.1,1.1,0.3,1.3,0.6
		c0.3,0.4,0.4,1.6,0.3,3.4c-0.1,1.8-0.4,4.2-0.9,7c2.3,0,4.4,0.1,6.2,0.4c1.8,0.2,3.3,0.5,4.6,0.8c1.3,0.3,2.3,0.6,3.1,0.9
		c0.8,0.3,1.4,0.5,1.8,0.6s0.6,0.4,0.6,0.8c0,0.4-0.1,0.9-0.2,1.4c-0.2,0.5-0.5,0.9-1,1.2c-0.4,0.3-0.9,0.4-1.5,0.3
		c-0.6-0.1-1.2-0.2-1.9-0.3c-0.7-0.2-1.5-0.3-2.5-0.4c-1-0.1-2.1-0.2-3.5-0.3c-1.3-0.1-2.9-0.2-4.7-0.2c-0.3,0-0.7,0-1.1,0
		c-0.4,0-0.8,0-1.3,0c-0.2,0.9-0.4,1.8-0.6,2.6s-0.5,1.8-0.8,2.7c-0.7,2.2-1.6,4.6-2.5,7.3c-0.8,2.3-1.8,4.9-3,7.8
		c-1.2,2.9-2.5,6.1-3.9,9.4c-0.3,2.4-0.3,4.2,0.1,5.5c0.4,1.2,0.9,2.2,1.5,2.7c0.7,0.6,1.6,0.9,2.7,1c0.8,0.1,1.8-0.2,3-0.9
		c1.2-0.7,2.4-1.6,3.7-2.8c1.3-1.2,2.6-2.4,3.9-3.8c1.3-1.4,2.5-2.7,3.6-4.1c1.1-1.3,2.1-2.5,2.9-3.6
		C387.9,50.9,388.5,50.2,388.8,49.7z"/>
</g>
<g>
	<path class="st1" d="M126.5,92c-0.2,0.1-0.4,0.1-0.6,0.1s-0.2-0.2-0.3-0.3c-0.1-0.1-0.1-0.3-0.1-0.5s0-0.4,0-0.5
		c0-0.1,0-0.3,0.1-0.5c0-0.2,0.1-0.4,0.2-0.5c0.1-0.2,0.2-0.3,0.3-0.4c0.1-0.1,0.3-0.2,0.4-0.3c1-0.2,1.9-0.4,2.8-0.5
		s1.7-0.2,2.5-0.3c0.8-0.1,1.6-0.2,2.4-0.2c0.2,0,0.3,0,0.5,0c0.2,0,0.3,0,0.5,0c0.2-0.1,0.3-0.1,0.5-0.1c0.1,0,0.2,0,0.3,0
		c0.6,0,1.2,0,1.9,0c0.5,0,1.2,0,1.8,0c0.7,0,1.4,0,2,0.1c0.1,0.2,0.1,0.4,0.1,0.6c0,0.1,0,0.3,0,0.4c0,0.1-0.1,0.2-0.1,0.4
		c-0.1,0.1-0.1,0.2-0.2,0.3c-0.1,0.1-0.2,0.2-0.3,0.3c-0.7,0-1.4,0-2.1,0.1s-1.2,0.1-1.7,0.1l-1.7,0.1c-0.2,1-0.5,2.2-0.8,3.6
		c-0.3,1.4-0.6,3-1,4.5c-0.3,1.6-0.6,3.2-0.9,4.7s-0.5,3-0.6,4.2c-0.1,1.2-0.3,2.4-0.4,3.6c-0.1,0.5-0.1,1-0.2,1.5
		c-0.1,0.5-0.1,1-0.2,1.6c0,0.5-0.1,1-0.1,1.5c0,0.5-0.1,0.9-0.1,1.3c-0.3,0.2-0.6,0.3-0.9,0.4c-0.3,0.1-0.5,0.2-0.8,0.2
		c-0.3,0.1-0.5,0.1-0.7,0.1c-0.5,0-0.8,0-0.9-0.1c-0.1-0.1-0.2-0.3-0.1-0.7c0-0.3,0.2-1.1,0.4-2.4c0.1-0.6,0.2-1.2,0.4-2.1
		c0.2-0.8,0.3-1.9,0.5-3.1s0.5-2.6,0.7-4.2c0.3-1.6,0.6-3.4,1-5.5l1.6-8.9c-0.6,0.1-1.2,0.2-1.8,0.4c-0.6,0.1-1.2,0.3-1.7,0.4
		c-0.5,0.1-1,0.3-1.4,0.4C127.1,91.8,126.8,91.9,126.5,92z"/>
	<path class="st1" d="M138.1,111c-0.1,0.2-0.3,0.4-0.5,0.5c-0.2,0.1-0.3,0.1-0.5,0.1s-0.2-0.1-0.3-0.3c-0.1-0.2,0-0.4,0.1-0.6
		c0.1-0.1,0.2-0.4,0.4-0.9c0.2-0.5,0.4-1,0.7-1.6c0.3-0.6,0.6-1.3,0.9-2.1c0.3-0.7,0.6-1.5,0.9-2.1c0.3-0.7,0.6-1.3,0.8-1.8
		c0.2-0.5,0.4-0.9,0.5-1.2c-0.2-0.2-0.4-0.3-0.5-0.4c-0.1-0.1-0.2-0.3-0.2-0.6c-0.1-0.3,0-0.6,0.1-1.1s0.3-0.9,0.6-1.3
		c0.2-0.4,0.5-0.8,0.9-1.1c0.3-0.3,0.6-0.5,1-0.5c0.6,0,1,0.1,1.3,0.5s0.4,0.7,0.5,1.1c0.1,0.3,0.1,0.6,0,1s-0.2,0.8-0.4,1.2
		c0.1,0,0.2,0.1,0.3,0.1s0.3,0.1,0.5,0.1c0.3,0,0.6-0.1,0.7-0.1s0.3-0.1,0.6-0.1c0.4,0,0.7,0.1,0.9,0.2c0.2,0.2,0.4,0.4,0.6,0.6
		s0.3,0.5,0.4,0.8s0.2,0.6,0.2,0.8c0.1,0.5,0,1.1-0.3,1.7s-0.7,1.2-1.1,1.9c-0.3,0.4-0.5,0.9-0.8,1.5s-0.4,1-0.3,1.4
		c0.1,0.3,0.1,0.5,0.3,0.6c0.1,0.2,0.4,0.2,0.9,0.2c0.4,0,0.7-0.2,1.2-0.5c0.4-0.3,0.8-0.6,1.3-1.1c0.4-0.4,0.8-0.9,1.3-1.4
		c0.4-0.5,0.8-1,1.1-1.5c0.4-0.5,0.6-0.9,0.9-1.3c0.2-0.4,0.4-0.7,0.5-0.9c0.1-0.2,0.2-0.3,0.4-0.4c0.2-0.1,0.3-0.1,0.4,0
		s0.2,0.2,0.3,0.4s0,0.4-0.2,0.8c-0.1,0.2-0.3,0.6-0.6,1c-0.3,0.5-0.6,1-1,1.6c-0.4,0.6-0.8,1.2-1.3,1.8c-0.5,0.6-1,1.2-1.6,1.7
		s-1.1,1-1.7,1.3s-1.1,0.5-1.6,0.6c-0.5,0-1,0-1.4-0.2c-0.4-0.2-0.7-0.4-0.9-0.7s-0.4-0.6-0.5-1s-0.2-0.7-0.2-1
		c0-0.3,0.1-0.5,0.2-0.8c0.1-0.3,0.2-0.6,0.4-0.9s0.3-0.6,0.5-0.9c0.2-0.3,0.3-0.6,0.4-0.9c0.3-0.6,0.6-1.2,0.8-1.6s0.3-0.8,0.3-1.1
		c0-0.2-0.1-0.4-0.2-0.5c-0.1-0.1-0.2-0.2-0.4-0.2c-0.1,0-0.2,0-0.3,0c-0.1,0-0.1,0-0.2,0s-0.1,0-0.2,0c-0.1,0-0.2,0-0.4,0
		c-0.3,0-0.5,0-0.7-0.1c-0.2-0.1-0.4-0.1-0.5-0.2c-0.1,0.2-0.2,0.5-0.5,1c-0.3,0.5-0.6,1.1-0.9,1.8c-0.4,0.7-0.7,1.4-1.1,2.1
		c-0.4,0.7-0.8,1.4-1.1,2.1c-0.3,0.6-0.6,1.2-0.9,1.6C138.4,110.6,138.2,110.9,138.1,111z"/>
	<path class="st1" d="M156.4,110.6c-0.8,0-1.5,0-2-0.3c-0.5-0.2-0.9-0.5-1.2-0.9c-0.3-0.4-0.5-0.7-0.7-1.2c-0.1-0.4-0.2-0.8-0.2-1.2
		c0-0.6,0-1.3,0-2c0.1-0.7,0.2-1.4,0.3-2c0.1-0.6,0.2-1.1,0.3-1.5c0.1-0.4,0.2-0.7,0.2-0.8c0.2-0.6,0.4-1.2,0.7-1.6
		c0.3-0.5,0.7-0.8,1.2-1c0.2-0.1,0.4-0.1,0.7-0.2c0.2,0,0.4-0.1,0.6-0.1c0.2,0,0.4,0,0.6,0.1c-0.5,1.5-0.9,2.7-1.1,3.7
		c-0.3,1-0.5,1.8-0.6,2.4c-0.1,0.7-0.2,1.3-0.3,1.7c-0.1,0.9,0.1,1.7,0.4,2.1c0.3,0.5,0.9,0.7,1.7,0.6c0.5,0,1.1-0.3,1.5-0.7
		c0.5-0.4,0.9-1,1.3-1.7c-0.1-0.3-0.1-0.7-0.2-1c0-0.7,0-1.3,0.1-2c0.1-0.6,0.2-1.3,0.3-1.8c0.1-0.6,0.3-1.1,0.4-1.5
		c0.2-0.5,0.3-0.8,0.4-1.1c0.2-0.5,0.4-0.8,0.6-1c0.2-0.1,0.5-0.2,0.9-0.3c0.2,0,0.3,0,0.4,0c0.1,0,0.2,0,0.3,0
		c0.3,0,0.4,0.2,0.4,0.4c0,0.3,0,0.8,0,1.5c0,0.7-0.1,1.4-0.3,2.1c-0.1,0.6-0.2,1.1-0.3,1.5s-0.2,0.8-0.3,1.1s-0.2,0.5-0.3,0.7
		c-0.1,0.2-0.2,0.4-0.3,0.5c0.1,0.6,0.2,1.1,0.2,1.5c0.1,0.4,0.2,0.7,0.3,0.9c0.1,0.2,0.2,0.3,0.4,0.4c0.1,0.1,0.3,0.1,0.5,0.1
		c0.3,0,0.6-0.2,1-0.5c0.4-0.3,0.8-0.7,1.2-1.1s0.8-1,1.2-1.5c0.4-0.5,0.8-1,1.1-1.5c0.3-0.5,0.6-0.9,0.8-1.3
		c0.2-0.4,0.4-0.6,0.4-0.7c0.1-0.2,0.3-0.3,0.4-0.4c0.1,0,0.2,0,0.3,0c0.1,0.1,0.1,0.2,0.2,0.3s0,0.3-0.1,0.5
		c-0.4,0.8-0.8,1.7-1.4,2.6c-0.6,0.9-1.2,1.8-1.8,2.6c-0.7,0.8-1.3,1.5-2,2s-1.3,0.8-2,0.9c-0.6,0-1-0.1-1.4-0.5
		c-0.3-0.4-0.7-0.9-0.9-1.6c-0.4,0.8-1,1.4-1.6,1.8S157.2,110.5,156.4,110.6z"/>
	<path class="st1" d="M171.9,108.1c0.1,0.1,0.3,0.1,0.5,0.1c0.2,0,0.4-0.1,0.6-0.2s0.4-0.2,0.5-0.4c0.2-0.2,0.3-0.4,0.4-0.6
		s0.1-0.6-0.1-1c-0.1-0.4-0.3-0.9-0.5-1.4c-0.2-0.5-0.4-1-0.7-1.5s-0.4-0.9-0.6-1.4c-0.1-0.3-0.3-0.6-0.4-0.9
		c-0.1-0.2-0.2-0.4-0.3-0.7c-0.1-0.2-0.2-0.4-0.2-0.4c-0.1,0.2-0.3,0.5-0.5,0.8c-0.2,0.4-0.5,0.8-0.8,1.2s-0.5,0.8-0.8,1.2
		s-0.4,0.6-0.5,0.7c-0.2,0.2-0.3,0.3-0.5,0.4c-0.2,0-0.3,0-0.4-0.1c-0.1-0.1-0.2-0.2-0.2-0.4c0-0.2,0-0.4,0.2-0.7
		c0.1-0.2,0.3-0.5,0.5-0.8c0.2-0.4,0.5-0.8,0.7-1.2c0.2-0.4,0.4-0.8,0.6-1.1c0.2-0.3,0.3-0.5,0.3-0.6c0-0.2,0-0.4-0.2-0.7
		c-0.2-0.3-0.2-0.6-0.1-0.9c0.1-0.3,0.2-0.6,0.5-1.1s0.6-0.8,1-1.1c0.4-0.3,0.8-0.6,1.2-0.8c0.4-0.2,0.8-0.2,1.1,0
		c0.3,0.2,0.5,0.3,0.7,0.5c0.2,0.2,0.3,0.4,0.2,0.6c0,0.1-0.1,0.2-0.2,0.4c-0.1,0.2-0.2,0.4-0.3,0.6c-0.2,0.3-0.4,0.6-0.7,1
		c0.1,0.5,0.2,0.9,0.3,1.3s0.3,0.7,0.4,1c0.1,0.3,0.3,0.7,0.5,1c0.2,0.4,0.4,0.7,0.7,1.1c0.2,0.4,0.4,0.8,0.6,1.1
		c0.2,0.4,0.3,0.7,0.5,1.1c0.1,0.3,0.2,0.6,0.1,0.8c0,0.4-0.2,0.8-0.5,1.3s-0.6,1-1.1,1.5c-0.4,0.5-0.9,0.9-1.5,1.3
		c-0.6,0.4-1.2,0.6-1.8,0.6c-0.4,0-0.9-0.1-1.3-0.3c-0.4-0.2-0.8-0.6-1.1-0.9c-0.3-0.4-0.5-0.7-0.7-1.1c-0.2-0.3-0.2-0.6-0.1-0.8
		c0.1-0.3,0.2-0.5,0.3-0.6c0.1-0.2,0.2-0.3,0.4-0.5c0.1-0.1,0.2-0.1,0.3-0.2c0.1-0.1,0.2-0.1,0.4-0.2c0.2-0.1,0.4-0.2,0.6-0.3
		c0.2,0.6,0.5,1.1,0.7,1.5s0.3,0.6,0.5,0.8C171.7,107.9,171.8,108.1,171.9,108.1z"/>
	<path class="st1" d="M190,100.2c0.1-0.1,0.2-0.2,0.3-0.3c0.1,0,0.2,0,0.3,0c0.1,0.1,0.1,0.2,0.2,0.3c0,0.1,0,0.3-0.1,0.6
		c-0.4,0.8-0.9,1.7-1.5,2.7c-0.6,1-1.3,1.9-2,2.7c-0.7,0.9-1.4,1.6-2.1,2.1c-0.7,0.6-1.3,0.9-1.7,0.9c-0.7,0-1.3-0.1-1.8-0.3
		c-0.5-0.2-0.9-0.6-1.1-0.9s-0.5-0.8-0.6-1.3c-0.1-0.5-0.2-0.9-0.2-1.3c0-0.3,0-0.9,0.1-1.8c0.1-0.9,0.2-1.9,0.3-3s0.3-2.4,0.5-3.7
		c0.2-1.3,0.4-2.6,0.6-3.8c-0.4,0.1-0.7,0.1-1.1,0.2s-0.7,0.1-1,0.1c-0.7,0-1.3,0-1.9-0.1s-1.1-0.3-1.4-0.4
		c-0.2-0.1-0.3-0.2-0.2-0.3c0-0.2,0.1-0.3,0.2-0.5c0.1-0.2,0.2-0.3,0.4-0.4s0.3-0.2,0.4-0.2c0.4,0,0.8,0,1.3,0c0.5,0,1,0,1.5-0.1
		c0.4,0,0.8-0.1,1.1-0.2c0.4-0.1,0.7-0.1,1.1-0.2c0.2-1,0.4-1.9,0.7-2.7c0.2-0.8,0.4-1.3,0.6-1.6c0.1-0.1,0.2-0.2,0.4-0.3
		c0.2-0.1,0.4-0.2,0.7-0.2c0.2,0,0.5-0.1,0.7,0c0.2,0,0.4,0.1,0.5,0.2c0.1,0.2,0.2,0.6,0.2,1.3s0,1.6-0.2,2.7c0.9,0,1.7,0,2.4,0
		c0.7,0.1,1.3,0.1,1.8,0.2c0.5,0.1,0.9,0.2,1.2,0.3s0.5,0.2,0.7,0.2c0.1,0,0.2,0.1,0.3,0.3c0,0.2,0,0.3-0.1,0.5s-0.2,0.3-0.3,0.5
		c-0.2,0.1-0.3,0.2-0.6,0.2c-0.2,0-0.4,0-0.7-0.1c-0.3,0-0.6-0.1-1-0.1c-0.4,0-0.8,0-1.3-0.1s-1.1,0-1.8,0c-0.1,0-0.3,0-0.4,0
		s-0.3,0-0.5,0c-0.1,0.3-0.1,0.7-0.2,1c-0.1,0.3-0.1,0.7-0.2,1c-0.2,0.9-0.5,1.8-0.8,2.8c-0.3,0.9-0.6,1.9-1,3
		c-0.4,1.1-0.8,2.3-1.3,3.6c-0.1,0.9,0,1.6,0.2,2.1c0.2,0.5,0.4,0.8,0.6,1c0.3,0.2,0.6,0.3,1,0.3c0.3,0,0.7-0.1,1.1-0.4
		c0.4-0.3,0.9-0.7,1.3-1.1c0.5-0.5,0.9-1,1.4-1.5s0.9-1.1,1.3-1.6c0.4-0.5,0.7-1,1-1.4C189.7,100.7,189.9,100.4,190,100.2z"/>
	<path class="st1" d="M202.5,100.9c-0.6,1-1.2,1.9-2,2.8c-0.7,0.9-1.5,1.7-2.4,2.5c-0.9,0.7-1.7,1.3-2.6,1.8s-1.8,0.7-2.7,0.8
		c-0.5,0-1-0.1-1.5-0.2c-0.5-0.2-1.1-0.5-1.5-0.9c-0.5-0.4-0.9-1-1.2-1.7c-0.3-0.7-0.4-1.6-0.4-2.7c0-0.9,0.3-1.8,0.6-2.8
		c0.4-1,0.9-1.9,1.5-2.7c0.6-0.8,1.3-1.5,2.1-2.1c0.8-0.6,1.6-0.9,2.5-0.9c0.8,0,1.4,0.1,1.8,0.5c0.4,0.4,0.6,0.9,0.6,1.5
		c0,0.7-0.2,1.3-0.4,1.8c-0.3,0.6-0.6,1.1-1,1.5s-0.8,0.9-1.3,1.3c-0.5,0.4-0.9,0.7-1.3,1.1c-0.4,0.3-0.9,0.7-1.3,1
		c-0.4,0.3-0.8,0.6-1.1,0.8c0.1,0.5,0.2,1,0.4,1.3c0.2,0.3,0.4,0.6,0.7,0.8c0.3,0.2,0.6,0.3,0.9,0.4c0.3,0.1,0.7,0.1,1,0.1
		c0.7,0,1.4-0.3,2.2-0.8c0.8-0.5,1.5-1.1,2.2-1.8c0.7-0.7,1.4-1.4,2-2.1s1.1-1.4,1.5-1.9c0.1-0.2,0.3-0.3,0.4-0.3s0.3,0,0.4,0
		c0.1,0.1,0.2,0.2,0.2,0.4S202.6,100.7,202.5,100.9z M194.2,96.5c-0.3,0-0.5,0.2-0.9,0.4c-0.3,0.3-0.7,0.7-1,1.1
		c-0.3,0.5-0.6,1.1-0.8,1.8c-0.3,0.7-0.4,1.5-0.5,2.4c0.2-0.2,0.5-0.4,0.8-0.6c0.3-0.2,0.6-0.4,0.8-0.7c0.9-0.7,1.5-1.4,1.8-1.9
		c0.3-0.5,0.5-1,0.5-1.4c0-0.4,0-0.7-0.2-0.9C194.6,96.6,194.4,96.5,194.2,96.5z"/>
	<path class="st1" d="M210.3,101c-0.1,0.7-0.1,1.3-0.2,1.9c-0.1,0.6-0.1,1.1-0.1,1.4c0,0.5,0.1,0.9,0.3,1.1c0.2,0.2,0.5,0.3,0.7,0.3
		c0.3,0,0.6-0.2,1.1-0.5s0.8-0.7,1.3-1.2c0.5-0.5,0.9-1,1.4-1.5c0.5-0.6,0.9-1.1,1.3-1.6c0.4-0.5,0.7-0.9,1-1.3
		c0.3-0.4,0.4-0.6,0.5-0.7c0.1-0.1,0.2-0.2,0.4-0.2s0.2,0,0.3,0c0.1,0.1,0.1,0.2,0.1,0.3c0,0.2-0.1,0.4-0.2,0.6
		c-0.2,0.4-0.5,0.9-0.9,1.5c-0.4,0.6-0.8,1.1-1.2,1.7c-0.5,0.6-0.9,1.2-1.4,1.8c-0.5,0.6-1,1.1-1.5,1.5s-1,0.8-1.5,1.1
		s-0.9,0.4-1.3,0.5c-0.3,0-0.6-0.1-0.8-0.2c-0.3-0.2-0.5-0.4-0.7-0.6c-0.2-0.3-0.4-0.6-0.5-0.9c-0.1-0.3-0.2-0.7-0.2-1
		c0-0.1,0-0.4,0.1-0.8c-0.8,1-1.7,1.9-2.5,2.5c-0.9,0.6-1.7,1-2.5,1c-0.3,0-0.6,0-1-0.2c-0.3-0.1-0.7-0.4-0.9-0.7
		c-0.3-0.3-0.5-0.7-0.7-1.3c-0.2-0.5-0.3-1.2-0.3-2c0-1.2,0.2-2.4,0.5-3.5c0.4-1.1,0.8-2.1,1.4-2.9s1.3-1.5,2.1-2
		c0.8-0.5,1.6-0.8,2.4-0.8c0.4,0,0.7,0.1,1,0.2c0.3,0.2,0.6,0.4,0.8,0.6s0.4,0.6,0.6,0.9c0.2,0.3,0.3,0.6,0.4,0.9
		c0.1-0.6,0.2-1.2,0.3-1.8c0.1-0.6,0.2-1.2,0.3-1.7c0.2-0.8,0.3-1.6,0.5-2.6c0.2-0.8,0.4-1.7,0.6-2.7c0.2-1,0.5-2.1,0.7-3.2
		c0.2-0.2,0.4-0.3,0.6-0.4c0.2-0.1,0.4-0.2,0.5-0.2c0.2-0.1,0.4-0.1,0.5-0.1c0.2,0,0.4,0,0.6,0c0.2,0,0.3,0.2,0.4,0.4s0.2,0.5,0.3,1
		c0.1,0.4,0.1,1,0.1,1.8c0,0.9-0.1,1.9-0.3,3c-0.2,1.1-0.5,2.3-0.9,3.4c-0.4,1.2-0.9,2.4-1.4,3.6C211.5,98.8,210.9,99.9,210.3,101z
		 M208.4,101.5c0.1-0.4,0.1-0.8,0.2-1.2s0.1-0.8,0.2-1.2c0,0-0.1,0-0.1,0.1s-0.1,0-0.1,0.1c-0.2,0.1-0.4,0.1-0.5,0
		c-0.1-0.1-0.1-0.3-0.2-0.5c0-0.1,0-0.4-0.1-0.7s-0.1-0.7-0.2-1c-0.1-0.3-0.3-0.6-0.5-0.9c-0.2-0.3-0.5-0.4-0.8-0.3
		c-0.5,0-1,0.3-1.4,0.8c-0.5,0.5-0.9,1.1-1.3,1.9c-0.4,0.7-0.7,1.5-1,2.3c-0.2,0.8-0.4,1.5-0.4,2.2c0,1,0.2,1.7,0.5,2.2
		c0.3,0.4,0.7,0.6,1.2,0.6c0.4,0,0.8-0.2,1.2-0.5c0.4-0.3,0.9-0.7,1.3-1.1c0.4-0.4,0.8-0.9,1.1-1.4
		C207.9,102.2,208.2,101.8,208.4,101.5z"/>
	<path class="st1" d="M229.6,104.9c0.1,0.1,0.3,0.1,0.5,0.1c0.2,0,0.4-0.1,0.6-0.2c0.2-0.1,0.4-0.2,0.5-0.4s0.3-0.4,0.4-0.6
		s0.1-0.6-0.1-1c-0.1-0.4-0.3-0.9-0.5-1.4c-0.2-0.5-0.4-1-0.7-1.5s-0.4-0.9-0.6-1.4c-0.1-0.3-0.3-0.6-0.4-0.9
		c-0.1-0.2-0.2-0.4-0.3-0.7s-0.2-0.4-0.2-0.4c-0.1,0.2-0.3,0.5-0.5,0.8c-0.2,0.4-0.5,0.8-0.8,1.2s-0.5,0.8-0.8,1.2s-0.4,0.6-0.5,0.7
		c-0.2,0.2-0.3,0.3-0.5,0.4c-0.2,0-0.3,0-0.4-0.1c-0.1-0.1-0.2-0.2-0.2-0.4c0-0.2,0-0.4,0.2-0.7c0.1-0.2,0.3-0.5,0.5-0.8
		c0.2-0.4,0.5-0.8,0.7-1.2c0.2-0.4,0.4-0.8,0.6-1.1s0.3-0.5,0.3-0.6c0-0.2,0-0.4-0.2-0.7c-0.2-0.3-0.2-0.6-0.1-0.9
		c0.1-0.3,0.2-0.6,0.5-1.1s0.6-0.8,1-1.1c0.4-0.3,0.8-0.6,1.2-0.8c0.4-0.2,0.8-0.2,1.1,0c0.3,0.2,0.5,0.3,0.7,0.5
		c0.2,0.2,0.3,0.4,0.2,0.6c0,0.1-0.1,0.2-0.2,0.4c-0.1,0.2-0.2,0.4-0.3,0.6c-0.2,0.3-0.4,0.6-0.7,1c0.1,0.5,0.2,0.9,0.3,1.3
		s0.3,0.7,0.4,1c0.1,0.3,0.3,0.7,0.5,1c0.2,0.4,0.4,0.7,0.7,1.1c0.2,0.4,0.4,0.8,0.6,1.1c0.2,0.4,0.3,0.7,0.5,1.1s0.2,0.6,0.1,0.8
		c0,0.4-0.2,0.8-0.5,1.3c-0.3,0.5-0.6,1-1.1,1.5s-0.9,0.9-1.5,1.3c-0.6,0.4-1.2,0.6-1.8,0.6c-0.4,0-0.9-0.1-1.3-0.3
		c-0.4-0.2-0.8-0.6-1.1-0.9c-0.3-0.4-0.5-0.7-0.7-1.1c-0.2-0.3-0.2-0.6-0.1-0.8c0.1-0.3,0.2-0.5,0.3-0.6c0.1-0.2,0.2-0.3,0.4-0.5
		c0.1-0.1,0.2-0.1,0.3-0.2c0.1-0.1,0.2-0.1,0.4-0.2s0.4-0.2,0.6-0.3c0.2,0.6,0.5,1.1,0.7,1.5s0.3,0.6,0.5,0.8
		C229.3,104.7,229.5,104.8,229.6,104.9z"/>
	<path class="st1" d="M250.4,98.2c-0.6,1-1.2,1.9-2,2.8c-0.7,0.9-1.5,1.7-2.4,2.5c-0.9,0.7-1.7,1.3-2.6,1.8s-1.8,0.7-2.7,0.8
		c-0.5,0-1-0.1-1.5-0.2c-0.5-0.2-1.1-0.5-1.5-0.9c-0.5-0.4-0.9-1-1.2-1.7c-0.3-0.7-0.4-1.6-0.4-2.7c0-0.9,0.3-1.8,0.6-2.8
		c0.4-1,0.9-1.9,1.5-2.7c0.6-0.8,1.3-1.5,2.1-2.1c0.8-0.6,1.6-0.9,2.5-0.9c0.8,0,1.4,0.1,1.8,0.5c0.4,0.4,0.6,0.9,0.6,1.5
		c0,0.7-0.2,1.3-0.4,1.8c-0.3,0.6-0.6,1.1-1,1.5s-0.8,0.9-1.3,1.3c-0.5,0.4-0.9,0.7-1.3,1.1c-0.4,0.3-0.9,0.7-1.3,1
		c-0.4,0.3-0.8,0.6-1.1,0.8c0.1,0.5,0.2,1,0.4,1.3s0.4,0.6,0.7,0.8c0.3,0.2,0.6,0.3,0.9,0.4c0.3,0.1,0.7,0.1,1,0.1
		c0.7,0,1.4-0.3,2.2-0.8c0.8-0.5,1.5-1.1,2.2-1.8s1.4-1.4,2-2.1c0.6-0.7,1.1-1.4,1.5-1.9c0.1-0.2,0.3-0.3,0.4-0.3c0.2,0,0.3,0,0.4,0
		c0.1,0.1,0.2,0.2,0.2,0.4S250.5,98,250.4,98.2z M242.1,93.8c-0.3,0-0.5,0.2-0.9,0.4c-0.3,0.3-0.7,0.7-1,1.1s-0.6,1.1-0.8,1.8
		c-0.3,0.7-0.4,1.5-0.5,2.4c0.2-0.2,0.5-0.4,0.8-0.6c0.3-0.2,0.6-0.4,0.8-0.7c0.9-0.7,1.5-1.4,1.8-1.9c0.3-0.5,0.5-1,0.5-1.4
		c0-0.4,0-0.7-0.2-0.9C242.5,93.9,242.3,93.8,242.1,93.8z"/>
	<path class="st1" d="M264.3,97.7c-0.3,0.4-0.6,1-1,1.6s-0.9,1.3-1.3,1.9c-0.5,0.6-0.9,1.2-1.4,1.8c-0.4,0.5-0.8,0.9-1.1,1.2
		c-0.2,0.1-0.4,0.3-0.7,0.4s-0.5,0.2-0.8,0.2c-0.3,0-0.6,0-0.8,0c-0.3,0-0.5-0.1-0.7-0.2c-0.2-0.1-0.4-0.3-0.5-0.6
		c-0.1-0.2-0.2-0.5-0.4-0.9c-0.1-0.4-0.2-0.8-0.2-1.4c-0.5,0.9-1,1.5-1.6,2c-0.6,0.5-1.1,0.8-1.7,1.1c-0.6,0.3-1.2,0.4-1.9,0.5
		c-0.3,0-0.6-0.1-1-0.2c-0.3-0.2-0.6-0.5-0.9-0.9s-0.4-1-0.5-1.6s-0.1-1.5,0.1-2.5c0.2-1.3,0.6-2.5,1.2-3.6c0.6-1.1,1.2-2,1.9-2.8
		c0.7-0.8,1.4-1.4,2.1-1.8c0.7-0.4,1.3-0.6,1.8-0.6c0.6,0.1,1,0.2,1.4,0.4c0.3,0.2,0.5,0.5,0.6,0.9c0.1,0.4,0,1-0.4,1.6
		c0.3-0.1,0.5-0.1,0.7-0.2s0.3-0.1,0.5-0.1c0.1,0,0.2,0,0.3,0c0,0,0,0.1,0,0.3c0,0.1,0,0.4-0.1,0.7c0,0.4-0.1,0.8-0.2,1.5
		c-0.1,0.6-0.2,1.4-0.4,2.4c0,0.2-0.1,0.4-0.1,0.5c0,0.2,0,0.3-0.1,0.5c0,0.2,0,0.3-0.1,0.6c0,0.2-0.1,0.5-0.1,0.8
		c0,0.2,0,0.4,0,0.6s0.1,0.4,0.1,0.6c0.1,0.2,0.2,0.3,0.3,0.4c0.1,0.1,0.3,0.2,0.6,0.1c0.2,0,0.5-0.2,0.8-0.4s0.7-0.6,1-1.1
		s0.7-0.9,1.1-1.4s0.7-1,1.1-1.5c0.3-0.5,0.6-0.9,0.9-1.3c0.3-0.4,0.5-0.6,0.6-0.8c0.2-0.2,0.3-0.3,0.5-0.4c0.2,0,0.3,0,0.4,0.1
		c0.1,0.1,0.1,0.3,0.1,0.6C264.7,97.1,264.5,97.4,264.3,97.7z M255.2,99.6c0.1-0.4,0.2-0.9,0.3-1.5s0.2-1.1,0.3-1.7
		c0.1-0.5,0.1-1,0.2-1.3c0-0.3,0-0.5-0.1-0.5c-0.1,0-0.2,0.1-0.3,0.1c-0.1,0-0.2,0.1-0.4,0.1c-0.2,0-0.3,0.1-0.5,0.1
		c0.1-0.3,0.2-0.6,0.3-0.9c0-0.2,0-0.4,0-0.5c0-0.1-0.1-0.3-0.1-0.3c-0.2-0.2-0.6,0-1.2,0.5s-1.2,1.5-1.8,2.8
		c-0.3,0.6-0.5,1.2-0.7,1.8c-0.2,0.6-0.3,1.2-0.3,1.8s0,1,0,1.4c0.1,0.4,0.2,0.7,0.3,0.8c0.2,0.2,0.5,0.3,0.8,0.3
		c0.3,0,0.6-0.1,0.9-0.3c0.3-0.2,0.6-0.4,0.9-0.7c0.3-0.3,0.5-0.5,0.8-0.8s0.4-0.5,0.6-0.8S255.2,99.7,255.2,99.6z"/>
	<path class="st1" d="M261.3,104c-0.1,0.2-0.3,0.4-0.5,0.5c-0.2,0.1-0.3,0.1-0.5,0.1s-0.2-0.1-0.3-0.3c-0.1-0.2,0-0.4,0.1-0.6
		c0.1-0.1,0.2-0.4,0.4-0.9c0.2-0.5,0.4-1,0.7-1.6c0.3-0.6,0.6-1.3,0.9-2.1c0.3-0.7,0.6-1.5,0.9-2.1s0.6-1.3,0.8-1.8
		c0.2-0.5,0.4-0.9,0.5-1.2c-0.2-0.2-0.4-0.3-0.5-0.4c-0.1-0.1-0.2-0.3-0.2-0.6c-0.1-0.3,0-0.6,0.1-1.1s0.3-0.9,0.6-1.3
		s0.5-0.8,0.9-1.1s0.6-0.5,1-0.5c0.6,0,1,0.1,1.3,0.5c0.3,0.4,0.4,0.7,0.5,1.1c0.1,0.3,0.1,0.6,0,1c-0.1,0.4-0.2,0.8-0.4,1.2
		c0.1,0,0.2,0.1,0.3,0.1s0.3,0.1,0.5,0.1c0.3,0,0.6-0.1,0.7-0.1s0.3-0.1,0.6-0.1c0.4,0,0.7,0.1,0.9,0.2s0.4,0.4,0.6,0.6
		s0.3,0.5,0.4,0.8c0.1,0.3,0.2,0.6,0.2,0.8c0.1,0.5,0,1.1-0.3,1.7c-0.3,0.6-0.7,1.2-1.1,1.9c-0.3,0.4-0.5,0.9-0.8,1.5
		c-0.3,0.5-0.4,1-0.3,1.4c0.1,0.3,0.1,0.5,0.3,0.6s0.4,0.2,0.9,0.2c0.4,0,0.7-0.2,1.2-0.5c0.4-0.3,0.8-0.6,1.3-1.1
		c0.4-0.4,0.8-0.9,1.3-1.4c0.4-0.5,0.8-1,1.1-1.5s0.6-0.9,0.9-1.3c0.2-0.4,0.4-0.7,0.5-0.9c0.1-0.2,0.2-0.3,0.4-0.4
		c0.2-0.1,0.3-0.1,0.4,0c0.1,0.1,0.2,0.2,0.3,0.4c0,0.2,0,0.4-0.2,0.8c-0.1,0.2-0.3,0.6-0.6,1s-0.6,1-1,1.6
		c-0.4,0.6-0.8,1.2-1.3,1.8c-0.5,0.6-1,1.2-1.6,1.7s-1.1,1-1.7,1.3s-1.1,0.5-1.6,0.6c-0.5,0-1,0-1.4-0.2c-0.4-0.2-0.7-0.4-0.9-0.7
		c-0.2-0.3-0.4-0.6-0.5-1s-0.2-0.7-0.2-1c0-0.3,0.1-0.5,0.2-0.8s0.2-0.6,0.4-0.9c0.1-0.3,0.3-0.6,0.5-0.9c0.2-0.3,0.3-0.6,0.4-0.9
		c0.3-0.6,0.6-1.2,0.8-1.6c0.2-0.4,0.3-0.8,0.3-1.1c0-0.2-0.1-0.4-0.2-0.5c-0.1-0.1-0.2-0.2-0.4-0.2c-0.1,0-0.2,0-0.3,0
		s-0.1,0-0.2,0c-0.1,0-0.1,0-0.2,0s-0.2,0-0.4,0c-0.3,0-0.5,0-0.7-0.1c-0.2-0.1-0.4-0.1-0.5-0.2c-0.1,0.2-0.2,0.5-0.5,1
		c-0.3,0.5-0.6,1.1-0.9,1.8c-0.4,0.7-0.7,1.4-1.1,2.1c-0.4,0.7-0.8,1.4-1.1,2.1c-0.3,0.6-0.6,1.2-0.9,1.6
		C261.6,103.7,261.4,103.9,261.3,104z"/>
	<path class="st1" d="M280.9,102c0.7,0,1.4-0.3,2.1-0.9c0.8-0.6,1.5-1.2,2.2-1.9c0.7-0.7,1.3-1.5,1.9-2.2s1-1.4,1.3-1.8
		c0.2-0.3,0.3-0.5,0.5-0.5s0.3,0,0.4,0.1c0.1,0.1,0.1,0.3,0.1,0.5c0,0.2-0.1,0.5-0.2,0.8c-0.1,0.3-0.4,0.6-0.7,1.1s-0.7,1-1.1,1.6
		c-0.4,0.6-0.9,1.2-1.5,1.8c-0.6,0.6-1.2,1.2-1.8,1.7c-0.6,0.5-1.3,0.9-1.9,1.3c-0.7,0.3-1.3,0.5-2,0.6c-0.9,0.1-1.7-0.1-2.3-0.4
		s-1.2-0.7-1.6-1.3c-0.4-0.5-0.7-1.1-0.9-1.8c-0.2-0.7-0.3-1.3-0.3-2s0.1-1.5,0.3-2.4c0.2-1,0.6-1.9,1.1-2.9
		c0.5-0.9,1.2-1.7,2.1-2.4c0.8-0.7,1.9-1.1,3.1-1.1c0.7,0,1.3,0.2,1.8,0.6s0.8,1.1,0.8,1.9c0,0.4,0,0.8-0.1,1.1
		c-0.1,0.4-0.3,0.7-0.4,1c-0.2,0.3-0.4,0.5-0.7,0.7s-0.6,0.3-0.9,0.3c-0.3,0-0.5-0.1-0.6-0.3c-0.1-0.2-0.2-0.4-0.3-0.7
		s-0.1-0.5,0-0.8c0-0.3,0-0.4,0.1-0.5c0.1-0.2,0.2-0.3,0.3-0.3c0.1-0.1,0.3-0.2,0.4-0.2c0.1-0.1,0.2-0.2,0.3-0.3s0.1-0.3,0.1-0.4
		c0-0.1-0.1-0.3-0.1-0.4c-0.1-0.1-0.2-0.1-0.4-0.1s-0.5,0.2-1,0.5c-0.5,0.3-1,0.8-1.4,1.4c-0.5,0.6-0.9,1.4-1.2,2.3
		c-0.3,0.9-0.5,2-0.5,3.2c0,0.7,0.1,1.3,0.4,1.7c0.2,0.4,0.5,0.8,0.8,1c0.3,0.2,0.7,0.4,1.1,0.5S280.6,102,280.9,102z"/>
	<path class="st1" d="M303.2,94.9c0.1-0.2,0.3-0.3,0.4-0.3c0.2,0,0.3,0,0.4,0.1c0.1,0.1,0.1,0.2,0.1,0.4c0,0.2-0.1,0.4-0.2,0.6
		c-0.4,0.6-0.8,1.2-1.3,1.8c-0.5,0.6-1,1.2-1.6,1.8c-0.6,0.6-1.1,1.1-1.7,1.6c-0.6,0.5-1.1,0.9-1.7,1.3c-0.6,0.4-1.1,0.6-1.6,0.6
		c-0.4,0-0.9-0.2-1.3-0.7c-0.4-0.5-0.6-1-0.6-1.5c0-0.6,0.1-1.3,0.2-2.1c0.1-0.5,0.3-1.2,0.5-1.9c0.2-0.7,0.4-1.4,0.5-2.1
		s0.1-1.3,0-1.7c-0.1-0.5-0.4-0.7-0.9-0.7c-0.3,0-0.7,0.2-1.1,0.4s-0.7,0.6-1.1,1c-0.4,0.4-0.7,0.8-1,1.3c-0.3,0.5-0.6,1-0.9,1.4
		c-0.1,0.8-0.2,1.6-0.4,2.5c-0.1,0.7-0.2,1.4-0.3,2.2c-0.1,0.8-0.2,1.5-0.3,2.1c-0.1,0.1-0.3,0.2-0.4,0.2c-0.1,0.1-0.3,0.1-0.4,0.1
		c-0.1,0-0.3,0-0.4,0c-0.2,0-0.3-0.1-0.5-0.2c-0.1-0.1-0.3-0.2-0.4-0.3c-0.1-0.1-0.2-0.3-0.3-0.5c0.7-3.9,1.3-7.1,1.7-9.5
		c0.4-2.4,0.7-4.2,1-5.5c0.3-1.5,0.4-2.5,0.5-3.1c0-0.4,0.1-0.8,0.1-1.2c0-0.3,0-0.7,0-1s-0.1-0.7-0.1-1c0.2-0.1,0.3-0.2,0.5-0.3
		c0.2-0.1,0.4-0.1,0.6-0.2c0.2-0.1,0.5-0.1,0.7-0.2c0.2-0.1,0.4-0.1,0.6-0.1c0.2,0,0.3,0,0.5,0c0.1,0,0.2,0.1,0.3,0.2
		c0.1,0.1,0.2,0.3,0.2,0.6s0,0.6,0,1c-0.1,0.4-0.1,0.8-0.2,1.3c-0.3,1.7-0.7,3.4-1.2,5s-0.9,3.4-1.2,5.2c0.2-0.4,0.6-0.9,0.9-1.3
		c0.4-0.5,0.7-0.9,1.2-1.3c0.4-0.4,0.9-0.7,1.4-1c0.5-0.3,1-0.4,1.6-0.5c0.3,0,0.6,0,0.8,0.1c0.3,0.1,0.5,0.2,0.7,0.4
		s0.4,0.5,0.5,0.9c0.1,0.4,0.2,0.8,0.2,1.4c0,0.3,0,0.7-0.1,1s-0.1,0.8-0.2,1.2s-0.2,0.9-0.4,1.5s-0.4,1.2-0.6,1.9
		c-0.2,0.5-0.3,0.9-0.4,1.3c-0.1,0.3,0,0.6,0.1,0.9c0.2,0.3,0.6,0.4,1.1,0.2c0.5-0.2,1.3-0.8,2.4-1.8c0.2-0.2,0.5-0.5,0.8-0.8
		s0.6-0.7,0.9-1c0.3-0.3,0.5-0.7,0.8-1C302.8,95.3,303,95,303.2,94.9z"/>
	<path class="st1" d="M325.3,94c-0.6,1-1.2,1.9-2,2.8c-0.7,0.9-1.5,1.7-2.4,2.5c-0.9,0.7-1.7,1.3-2.6,1.8c-0.9,0.5-1.8,0.7-2.7,0.8
		c-0.5,0-1-0.1-1.5-0.2c-0.5-0.2-1.1-0.5-1.5-0.9c-0.5-0.4-0.9-1-1.2-1.7s-0.4-1.6-0.4-2.7c0-0.9,0.3-1.8,0.6-2.8
		c0.4-1,0.9-1.9,1.5-2.7c0.6-0.8,1.3-1.5,2.1-2.1s1.6-0.9,2.5-0.9c0.8,0,1.4,0.1,1.8,0.5s0.6,0.9,0.6,1.5c0,0.7-0.2,1.3-0.4,1.8
		c-0.3,0.6-0.6,1.1-1,1.5s-0.8,0.9-1.3,1.3c-0.5,0.4-0.9,0.7-1.3,1.1c-0.4,0.3-0.9,0.7-1.3,1s-0.8,0.6-1.1,0.8
		c0.1,0.5,0.2,1,0.4,1.3c0.2,0.3,0.4,0.6,0.7,0.8c0.3,0.2,0.6,0.3,0.9,0.4c0.3,0.1,0.7,0.1,1,0.1c0.7,0,1.4-0.3,2.2-0.8
		c0.8-0.5,1.5-1.1,2.2-1.8c0.7-0.7,1.4-1.4,2-2.1c0.6-0.7,1.1-1.4,1.5-1.9c0.1-0.2,0.3-0.3,0.4-0.3c0.2,0,0.3,0,0.4,0
		c0.1,0.1,0.2,0.2,0.2,0.4C325.5,93.6,325.4,93.8,325.3,94z M316.9,89.6c-0.3,0-0.5,0.2-0.9,0.4s-0.7,0.7-1,1.1
		c-0.3,0.5-0.6,1.1-0.8,1.8c-0.3,0.7-0.4,1.5-0.5,2.4c0.2-0.2,0.5-0.4,0.8-0.6c0.3-0.2,0.6-0.4,0.8-0.7c0.9-0.7,1.5-1.4,1.8-1.9
		c0.3-0.5,0.5-1,0.5-1.4c0-0.4,0-0.7-0.2-0.9C317.4,89.7,317.2,89.6,316.9,89.6z"/>
	<path class="st1" d="M332.8,100.9c-0.5,0-0.9,0-1.3-0.2s-0.6-0.4-0.9-0.7c-0.2-0.3-0.4-0.6-0.5-1c-0.1-0.4-0.1-0.8,0-1.2
		c0-0.3,0.1-0.7,0.2-1.2c0.1-0.5,0.2-1,0.4-1.6c0.1-0.6,0.2-1.2,0.3-1.8c0.1-0.6,0.2-1.1,0.2-1.6c0-0.5,0-0.9-0.1-1.2
		c-0.1-0.3-0.3-0.4-0.6-0.4c-0.3,0-0.7,0.1-1,0.4s-0.7,0.6-1,1c-0.3,0.4-0.7,0.9-1,1.4c-0.3,0.5-0.7,1-1,1.6
		c-0.1,0.7-0.3,1.4-0.4,1.9c-0.1,0.5-0.2,1-0.2,1.5c-0.1,0.4-0.1,0.8-0.2,1.1s-0.1,0.6-0.2,0.9c-0.1,0.2-0.2,0.4-0.5,0.6
		c-0.3,0.2-0.6,0.4-1,0.5s-0.7,0.2-0.9,0.2s-0.4-0.1-0.3-0.3c0-0.1,0.1-0.4,0.2-0.9c0.1-0.4,0.2-1,0.3-1.6c0.1-0.6,0.3-1.3,0.4-1.9
		c0.1-0.7,0.3-1.3,0.4-1.9c0.1-0.5,0.2-1,0.3-1.6c0.1-0.5,0.2-1.1,0.3-1.8s0.3-1.4,0.4-2.2c0.1-0.1,0.3-0.2,0.4-0.3
		c0.2-0.1,0.3-0.1,0.5-0.2c0.2-0.1,0.3-0.1,0.5-0.2c0.2,0,0.3,0,0.5,0c0.1,0,0.3,0,0.5,0.1s0.3,0.1,0.4,0.2
		c-0.1,0.2-0.1,0.4-0.2,0.6c-0.1,0.3-0.1,0.5-0.2,0.8c-0.1,0.3-0.2,0.7-0.3,1.1c0.3-0.4,0.5-0.8,0.9-1.2c0.3-0.4,0.7-0.8,1.1-1.1
		c0.4-0.3,0.8-0.6,1.3-0.8c0.5-0.2,0.9-0.4,1.4-0.4c0.4,0,0.8,0.1,1.1,0.3c0.3,0.2,0.6,0.5,0.8,0.9s0.3,0.9,0.4,1.4
		c0.1,0.6,0,1.2-0.1,1.9l-0.3,1.4c-0.1,0.4-0.2,1-0.3,1.6c-0.1,0.6-0.3,1.3-0.5,2c-0.1,0.5-0.1,0.9-0.1,1.2c0.1,0.3,0.3,0.5,0.6,0.5
		c0.4,0,0.8-0.3,1.4-0.8c0.6-0.5,1.1-1.1,1.7-1.8c0.6-0.7,1.1-1.4,1.6-2.1c0.5-0.7,0.9-1.3,1.1-1.7c0.2-0.3,0.3-0.5,0.5-0.6
		c0.2-0.1,0.3-0.1,0.4-0.1c0.1,0.1,0.2,0.2,0.2,0.4c0,0.2-0.1,0.5-0.2,0.8c-0.1,0.3-0.3,0.7-0.6,1.2s-0.6,1-1,1.6
		c-0.4,0.6-0.8,1.1-1.3,1.7c-0.5,0.6-0.9,1.1-1.4,1.6c-0.5,0.5-1,0.9-1.5,1.2C333.7,100.7,333.2,100.9,332.8,100.9z"/>
	<path class="st1" d="M346.8,103.9c-0.1,0.5-0.2,1.1-0.3,1.9c-0.1,0.8-0.2,1.6-0.4,2.4s-0.3,1.7-0.6,2.5c-0.2,0.8-0.5,1.6-0.7,2.3
		c-0.3,0.7-0.6,1.2-0.9,1.7c-0.4,0.4-0.8,0.7-1.2,0.7c-0.7,0-1.3-0.1-1.8-0.5s-1-0.9-1.3-1.5c-0.4-0.6-0.7-1.3-0.9-2s-0.3-1.4-0.3-2
		c0-0.8,0-1.5,0.1-2.1c0.1-0.6,0.3-1.1,0.7-1.6c0.3-0.5,0.8-1.1,1.4-1.7c0.6-0.6,1.4-1.4,2.3-2.2c0.5-0.4,0.9-0.9,1.3-1.3
		c0.4-0.4,0.8-0.8,1.2-1.1c0.1-0.4,0.2-0.8,0.2-1.2s0.1-0.7,0.2-1c-0.5,0.8-1.1,1.4-1.9,2c-0.7,0.5-1.6,0.8-2.6,0.9
		c-0.9,0.1-1.7-0.3-2.3-1.1s-0.9-2-1-3.5c0-0.8,0.1-1.7,0.3-2.7s0.6-2,1.1-2.9c0.5-0.9,1.1-1.7,1.9-2.3c0.8-0.7,1.6-1,2.6-1.1
		c0.5,0,0.9,0.1,1.2,0.3s0.6,0.5,0.9,0.8c0.3,0.3,0.4,0.7,0.6,1.1c0.1,0.4,0.3,0.7,0.3,1.1c0-0.1,0.1-0.3,0.1-0.4
		c0-0.1,0-0.3,0.1-0.4c0.2-0.7,0.4-1.2,0.6-1.5c0.2-0.3,0.6-0.4,1.2-0.5c0.3,0,0.5,0,0.7,0.1c0.2,0.1,0.3,0.2,0.3,0.3
		c-0.1,0.2-0.2,0.4-0.2,0.5s-0.1,0.3-0.2,0.4c-0.1,0.1-0.1,0.3-0.2,0.5c-0.1,0.2-0.1,0.5-0.2,0.9c0,0.1-0.1,0.5-0.2,1
		s-0.2,1.2-0.3,1.9c-0.1,0.7-0.3,1.6-0.4,2.5c-0.1,0.9-0.3,1.8-0.4,2.6c0.6-0.4,1.2-0.8,1.8-1.3c0.6-0.5,1.2-1,1.7-1.6
		c0.5-0.5,1-1,1.4-1.5s0.7-0.9,0.9-1.2c0.2-0.3,0.3-0.5,0.5-0.6c0.2-0.1,0.4-0.2,0.5-0.1c0.2,0,0.3,0.1,0.3,0.3c0,0.2,0,0.4-0.2,0.7
		c-0.4,0.8-1,1.6-1.6,2.3s-1.3,1.5-2,2.1c-0.7,0.7-1.4,1.2-2,1.8c-0.7,0.5-1.2,0.9-1.7,1.2c-0.2,1-0.3,1.7-0.4,2.3
		C347,102.8,346.9,103.4,346.8,103.9z M341.9,112.6c0.4,0,0.7-0.4,1-1s0.5-1.5,0.7-2.6c0-0.3,0.1-0.6,0.2-1.1c0.1-0.5,0.2-1,0.3-1.6
		c0.1-0.6,0.2-1.3,0.4-2s0.3-1.4,0.4-2.2c-0.2,0.2-0.3,0.3-0.5,0.5c-0.2,0.2-0.3,0.4-0.5,0.6c-0.4,0.5-0.9,0.9-1.3,1.3
		s-0.8,0.9-1.1,1.4c-0.3,0.5-0.6,1-0.7,1.5c-0.2,0.5-0.2,1.1-0.2,1.8c0,0.7,0.1,1.3,0.2,1.7c0.1,0.4,0.2,0.8,0.3,1
		c0.1,0.2,0.2,0.4,0.4,0.5C341.6,112.5,341.7,112.6,341.9,112.6z M342.5,97.9c0.4,0,0.8-0.2,1.2-0.4c0.4-0.3,0.7-0.5,1-0.9
		c0.3-0.3,0.5-0.6,0.7-1c0.2-0.3,0.3-0.6,0.4-0.8c0.1-0.2,0.2-0.5,0.3-0.8c0.1-0.3,0.2-0.6,0.2-0.9c0-0.3,0.1-0.6,0-0.8
		c0-0.2-0.1-0.4-0.3-0.4c-0.1,0-0.2-0.1-0.3-0.2s-0.1-0.3-0.2-0.5c-0.1-0.2-0.1-0.4-0.1-0.6c0-0.2,0-0.4-0.1-0.5
		c-0.1-0.7-0.4-1.3-0.6-1.6s-0.6-0.5-0.9-0.5c-0.5,0-1,0.3-1.5,0.7c-0.4,0.4-0.8,1-1.2,1.7c-0.3,0.7-0.6,1.4-0.7,2.2
		s-0.2,1.6-0.2,2.3c0,0.9,0.2,1.6,0.5,2.1C341.2,97.7,341.7,97.9,342.5,97.9z"/>
	<path class="st1" d="M355,87c0.1-0.1,0.3-0.2,0.6-0.3c0.3-0.1,0.6-0.2,0.9-0.3s0.6-0.1,0.9-0.1c0.3,0,0.4,0,0.5,0
		c0,0,0,0.2-0.1,0.7c-0.1,0.4-0.2,0.9-0.4,1.5c-0.2,0.6-0.3,1.2-0.5,1.8s-0.3,1.1-0.4,1.5c-0.1,0.4-0.2,0.8-0.3,1.3
		c-0.1,0.5-0.2,0.9-0.3,1.4c-0.1,0.5-0.1,0.9-0.2,1.3c0,0.4,0,0.7,0.1,0.9c0.1,0.2,0.2,0.4,0.4,0.5c0.1,0.1,0.3,0.1,0.4,0.1
		c0.4,0,0.9-0.3,1.6-0.8c0.6-0.5,1.2-1.1,1.9-1.8c0.6-0.7,1.2-1.4,1.7-2.1c0.5-0.7,0.9-1.2,1.2-1.7c0.2-0.2,0.3-0.4,0.5-0.4
		c0.2-0.1,0.3-0.1,0.4,0c0.1,0.1,0.2,0.2,0.2,0.4c0,0.2,0,0.4-0.2,0.7c-0.3,0.6-0.8,1.3-1.4,2.2c-0.6,0.8-1.3,1.7-1.9,2.4
		s-1.4,1.5-2,2c-0.7,0.6-1.2,0.9-1.7,0.9c-0.4,0-0.7,0-1.1-0.1c-0.4-0.1-0.7-0.3-1-0.5s-0.5-0.5-0.8-0.8c-0.2-0.3-0.3-0.6-0.4-1
		c-0.1-0.5-0.1-1.2-0.1-2.2c0-0.9,0.1-1.9,0.2-2.8c0.1-1,0.3-1.9,0.5-2.8C354.4,88.1,354.7,87.5,355,87z M359,80.1
		c0,0.2-0.2,0.5-0.3,0.7c-0.2,0.2-0.4,0.4-0.6,0.6c-0.2,0.1-0.4,0.3-0.7,0.3c-0.2,0.1-0.4,0-0.6-0.1c-0.5-0.3-0.7-0.7-0.8-1
		s0-0.8,0.2-1.1c0.2-0.4,0.4-0.7,0.7-0.9c0.3-0.3,0.6-0.4,0.8-0.5c0.2-0.1,0.4,0,0.6,0.1c0.2,0.1,0.3,0.3,0.4,0.5s0.2,0.5,0.2,0.7
		C359,79.6,359,79.9,359,80.1z"/>
	<path class="st1" d="M371.3,98.8c-0.5,0-0.9,0-1.3-0.2c-0.4-0.2-0.6-0.4-0.9-0.7c-0.2-0.3-0.4-0.6-0.5-1c-0.1-0.4-0.1-0.8,0-1.2
		c0-0.3,0.1-0.7,0.2-1.2c0.1-0.5,0.2-1,0.4-1.6s0.2-1.2,0.3-1.8c0.1-0.6,0.2-1.1,0.2-1.6c0-0.5,0-0.9-0.1-1.2
		c-0.1-0.3-0.3-0.4-0.6-0.4c-0.3,0-0.7,0.1-1,0.4s-0.7,0.6-1,1c-0.3,0.4-0.7,0.9-1,1.4c-0.3,0.5-0.7,1-1,1.6
		c-0.1,0.7-0.3,1.4-0.4,1.9c-0.1,0.5-0.2,1-0.2,1.5s-0.1,0.8-0.2,1.1c-0.1,0.3-0.1,0.6-0.2,0.9c-0.1,0.2-0.2,0.4-0.5,0.6
		c-0.3,0.2-0.6,0.4-1,0.5c-0.3,0.1-0.7,0.2-0.9,0.2c-0.3,0-0.4-0.1-0.3-0.3c0-0.1,0.1-0.4,0.2-0.9s0.2-1,0.3-1.6
		c0.1-0.6,0.3-1.3,0.4-1.9c0.1-0.7,0.3-1.3,0.4-1.9c0.1-0.5,0.2-1,0.3-1.6c0.1-0.5,0.2-1.1,0.3-1.8s0.3-1.4,0.4-2.2
		c0.1-0.1,0.3-0.2,0.4-0.3c0.2-0.1,0.3-0.1,0.5-0.2c0.2-0.1,0.3-0.1,0.5-0.2c0.2,0,0.3,0,0.5,0c0.1,0,0.3,0,0.5,0.1
		c0.2,0,0.3,0.1,0.4,0.2c-0.1,0.2-0.1,0.4-0.2,0.6c-0.1,0.3-0.1,0.5-0.2,0.8c-0.1,0.3-0.2,0.7-0.3,1.1c0.3-0.4,0.5-0.8,0.9-1.2
		c0.3-0.4,0.7-0.8,1.1-1.1c0.4-0.3,0.8-0.6,1.3-0.8c0.5-0.2,0.9-0.4,1.4-0.4c0.4,0,0.8,0.1,1.1,0.3c0.3,0.2,0.6,0.5,0.8,0.9
		c0.2,0.4,0.3,0.9,0.4,1.4c0.1,0.6,0,1.2-0.1,1.9l-0.3,1.4c-0.1,0.4-0.2,1-0.3,1.6c-0.1,0.6-0.3,1.3-0.5,2c-0.1,0.5-0.1,0.9-0.1,1.2
		c0.1,0.3,0.3,0.5,0.6,0.5s0.8-0.3,1.4-0.8s1.1-1.1,1.7-1.8c0.6-0.7,1.1-1.4,1.6-2.1s0.9-1.3,1.1-1.7c0.2-0.3,0.3-0.5,0.5-0.6
		s0.3-0.1,0.4-0.1c0.1,0.1,0.2,0.2,0.2,0.4c0,0.2-0.1,0.5-0.2,0.8c-0.1,0.3-0.3,0.7-0.6,1.2c-0.3,0.5-0.6,1-1,1.6
		c-0.4,0.6-0.8,1.1-1.3,1.7c-0.5,0.6-0.9,1.1-1.4,1.6c-0.5,0.5-1,0.9-1.5,1.2C372.3,98.6,371.8,98.7,371.3,98.8z"/>
	<path class="st1" d="M390.7,90.3c-0.6,1-1.2,1.9-2,2.8c-0.7,0.9-1.5,1.7-2.4,2.5c-0.9,0.7-1.7,1.3-2.6,1.8
		c-0.9,0.5-1.8,0.7-2.7,0.8c-0.5,0-1-0.1-1.5-0.2c-0.5-0.2-1.1-0.5-1.5-0.9c-0.5-0.4-0.9-1-1.2-1.7s-0.4-1.6-0.4-2.7
		c0-0.9,0.3-1.8,0.6-2.8c0.4-1,0.9-1.9,1.5-2.7c0.6-0.8,1.3-1.5,2.1-2.1s1.6-0.9,2.5-0.9c0.8,0,1.4,0.1,1.8,0.5
		c0.4,0.4,0.6,0.9,0.6,1.5c0,0.7-0.2,1.3-0.4,1.8c-0.3,0.6-0.6,1.1-1,1.5s-0.8,0.9-1.3,1.3c-0.5,0.4-0.9,0.7-1.3,1.1
		c-0.4,0.3-0.9,0.7-1.3,1s-0.8,0.6-1.1,0.8c0.1,0.5,0.2,1,0.4,1.3c0.2,0.3,0.4,0.6,0.7,0.8c0.3,0.2,0.6,0.3,0.9,0.4
		c0.3,0.1,0.7,0.1,1,0.1c0.7,0,1.4-0.3,2.2-0.8c0.8-0.5,1.5-1.1,2.2-1.8c0.7-0.7,1.4-1.4,2-2.1c0.6-0.7,1.1-1.4,1.5-1.9
		c0.1-0.2,0.3-0.3,0.4-0.3c0.2,0,0.3,0,0.4,0c0.1,0.1,0.2,0.2,0.2,0.4C390.9,89.9,390.8,90.1,390.7,90.3z M382.4,85.9
		c-0.3,0-0.5,0.2-0.9,0.4c-0.3,0.3-0.7,0.7-1,1.1c-0.3,0.5-0.6,1.1-0.8,1.8c-0.3,0.7-0.4,1.5-0.5,2.4c0.2-0.2,0.5-0.4,0.8-0.6
		c0.3-0.2,0.6-0.4,0.8-0.7c0.9-0.7,1.5-1.4,1.8-1.9c0.3-0.5,0.5-1,0.5-1.4c0-0.4,0-0.7-0.2-0.9C382.8,86,382.6,85.9,382.4,85.9z"/>
</g>
</svg>
